{"title":"Frances Ha 2012 BRRip 480p x264 AAC - VYTO [P2PDL]","uid":9143474,"size":319554479,"categoryP":"video","categoryS":"movies","magnet":"?xt=urn:btih:e99b045d8c7f36a5fba54c0d00ab9e91f61ab314&amp;dn=Frances+Ha+2012+BRRip+480p+x264+AAC+-+VYTO+%5BP2PDL%5D&amp;tr=udp%3A%2F%2Ftracker.openbittorrent.com%3A80&amp;tr=udp%3A%2F%2Fopen.demonii.com%3A1337&amp;tr=udp%3A%2F%2Ftracker.coppersurfer.tk%3A6969&amp;tr=udp%3A%2F%2Fexodus.desync.com%3A6969","seeders":1,"leechers":0,"uploader":"ValidusVyto","files":-1,"time":1383551922,"description":"_______ Visit us at our Semi Public Bittorrent Community ________\n  &lt;a href=&quot;\nhttp://p2pdl.com&quot; rel=&quot;nofollow&quot; target=&quot;_NEW&quot;&gt;\nhttp://p2pdl.com&lt;/a&gt;  _____________________________ &lt;a href=&quot; http://p2pdl.com&quot; rel=&quot;nofollow&quot; target=&quot;_NEW&quot;&gt; http://p2pdl.com&lt;/a&gt;\n\n\n\nFrances Ha 2012 BRRip 480p x264 AAC - VYTO\n\n\nGenre: Comedy | Drama\nPlot: A story that follows a New York woman (who doesn't really have an apartment),\napprentices for a dance company (though she's not really a dancer), and throws herself\nheadlong into her dreams, even as their possible reality dwindles. \nDirector: Noah Baumbach\nStars: Greta Gerwig, Mickey Sumner, Adam Driver.\nRated: R for sexual references and language.\n\n\nIMDb: &lt;a href=&quot;\nhttp://www.imdb.com/title/tt2347569/&quot; rel=&quot;nofollow&quot; target=&quot;_NEW&quot;&gt;\nhttp://www.imdb.com/title/tt2347569/&lt;/a&gt;\n\n\nFormat                         : MPEG-4\nCodec ID                       : isom\nFile size                      : 301 MiB\nDuration                       : 1h 26mn\nOverall bit rate               : 489 Kbps\n\nVideo\nFormat                         : AVC\nBit rate                       : 446 Kbps\nWidth                          : 720 pixels\nHeight                         : 384 pixels\nDisplay aspect ratio           : 1.85:1\nFrame rate mode                : Constant\nFrame rate                     : 23.976 fps\nChroma subsampling             : 4:2:0\nBit depth                      : 10 bits\nStream size                    : 274 MiB (91%)\nWriting library                : x264 core 138 r2358\n\nAudio\nFormat                         : AAC\nBit rate mode                  : Variable\nBit rate                       : 39.9 Kbps\nChannel count                  : 2 channels\nChannel positions              : Front: L R\nSampling rate                  : 48.0 KHz\nStream size                    : 24.6 MiB (8%)\nLanguage                       : English\n\nSubtitle                       : Yes(English)\n\nSource                         : LIMITED.720p.BluRay.X264-AMIABLE\n &lt;a href=&quot;\nhttp://ultraimg.com/images/yrtvJ.png&quot; rel=&quot;nofollow&quot; target=&quot;_NEW&quot;&gt;\nhttp://ultraimg.com/images/yrtvJ.png&lt;/a&gt; &lt;a href=&quot;\nhttp://ultraimg.com/images/oIXQ.png&quot; rel=&quot;nofollow&quot; target=&quot;_NEW&quot;&gt;\nhttp://ultraimg.com/images/oIXQ.png&lt;/a&gt; &lt;a href=&quot;\nhttp://ultraimg.com/images/roG1S.png&quot; rel=&quot;nofollow&quot; target=&quot;_NEW&quot;&gt;\nhttp://ultraimg.com/images/roG1S.png&lt;/a&gt; &lt;a href=&quot;\nhttp://ultraimg.com/images/hXO53.png&quot; rel=&quot;nofollow&quot; target=&quot;_NEW&quot;&gt;\nhttp://ultraimg.com/images/hXO53.png&lt;/a&gt; &lt;a href=&quot;\nhttp://ultraimg.com/images/w8SA.png&quot; rel=&quot;nofollow&quot; target=&quot;_NEW&quot;&gt;\nhttp://ultraimg.com/images/w8SA.png&lt;/a&gt; &lt;a href=&quot;\nhttp://ultraimg.com/images/Tv8Be.png&quot; rel=&quot;nofollow&quot; target=&quot;_NEW&quot;&gt;\nhttp://ultraimg.com/images/Tv8Be.png&lt;/a&gt; &lt;a href=&quot;\nhttp://ultraimg.com/images/h3Cu.png&quot; rel=&quot;nofollow&quot; target=&quot;_NEW&quot;&gt;\nhttp://ultraimg.com/images/h3Cu.png&lt;/a&gt; &lt;a href=&quot;\nhttp://ultraimg.com/images/luQEv.png&quot; rel=&quot;nofollow&quot; target=&quot;_NEW&quot;&gt;\nhttp://ultraimg.com/images/luQEv.png&lt;/a&gt;\n\n----------------------------------------------------------------------------------------------------\n\n\nEncoded using revolutionary 10bit encoding, which enables us to provide you more crispier \nand sharper images at small sizes, just make sure you follow our instructions without a fault.\nRecommend to you to use latest version of VLC player. Install K-Lite Codec Pack or shark007 codecs\nin case of any kind of problem in playback (For non-VLC Media Player users). Alternatively, install\nCore AVC codecs, the fastest decoder that there is coupled with Community Center Codec Pack and play\non Windows Media Player Classic. Check sample to be sure.\nEnjoy!\n\nEncoder Notes:Looking For Early Access To Anything You Can Provide DVDScr, R5, DVDR, BluRay, Direct\nAudio, Music Releases and Seedboxes. We require dedicated servers, so as to do more \nand fast releases of movies.\nIf You Got anything to offer please contact us at &quot;&lt;a class=&quot;__cf_email__&quot; href=&quot;/cdn-cgi/l/email-protection&quot; data-cfemail=&quot;daaaa8bd9ab2afa9b2f4b9b5b7&quot;&gt;[email&amp;#160;protected]&lt;/a&gt;&lt;script cf-hash='f9e31' type=&quot;text/javascript&quot;&gt;\n/* &lt;![CDATA[ */!function(){try{var t=&quot;currentScript&quot;in document?document.currentScript:function(){for(var t=document.getElementsByTagName(&quot;script&quot;),e=t.length;e--;)if(t[e].getAttribute(&quot;cf-hash&quot;))return t[e]}();if(t&amp;&amp;t.previousSibling){var e,r,n,i,c=t.previousSibling,a=c.getAttribute(&quot;data-cfemail&quot;);if(a){for(e=&quot;&quot;,r=parseInt(a.substr(0,2),16),n=2;a.length-n;n+=2)i=parseInt(a.substr(n,2),16)^r,e+=String.fromCharCode(i);e=document.createTextNode(e),c.parentNode.replaceChild(e,c)}}}catch(u){}}();/* ]]&gt; */&lt;/script&gt;&quot;.\n\nFor more of our team uploads visit @                                             &lt;a href=&quot; http://thepiratebay.se/user/vitamin_x&quot; rel=&quot;nofollow&quot; target=&quot;_NEW&quot;&gt; http://thepiratebay.se/user/vitamin_x&lt;/a&gt;","torrent":{"xt":"urn:btih:e99b045d8c7f36a5fba54c0d00ab9e91f61ab314","amp;dn":"Frances+Ha+2012+BRRip+480p+x264+AAC+-+VYTO+%5BP2PDL%5D","amp;tr":["udp%3A%2F%2Ftracker.openbittorrent.com%3A80","udp%3A%2F%2Fopen.demonii.com%3A1337","udp%3A%2F%2Ftracker.coppersurfer.tk%3A6969","udp%3A%2F%2Fexodus.desync.com%3A6969"],"infoHash":"e99b045d8c7f36a5fba54c0d00ab9e91f61ab314","infoHashBuffer":{"type":"Buffer","data":[233,155,4,93,140,127,54,165,251,165,76,13,0,171,158,145,246,26,179,20]},"announce":[],"urlList":[]}}